<svg width="32" height="38" viewBox="0 0 32 38" fill="none" xmlns="http://www.w3.org/2000/svg">
    <path d="M26.5208 36.25C24.4792 38.2292 22.25 37.9167 20.1042 36.9792C17.8333 36.0208 15.75 35.9792 13.3542 36.9792C10.3542 38.2708 8.77085 37.8958 6.97918 36.25C-3.18748 25.7708 -1.68748 9.8125 9.85418 9.22917C12.6667 9.375 14.625 10.7708 16.2708 10.8958C18.7292 10.3958 21.0833 8.95833 23.7083 9.14583C26.8542 9.39583 29.2292 10.6458 30.7917 12.8958C24.2917 16.7917 25.8333 25.3542 31.7917 27.75C30.6042 30.875 29.0625 33.9792 26.5 36.2708L26.5208 36.25ZM16.0625 9.10417C15.75 4.45833 19.5208 0.625 23.8542 0.25C24.4583 5.625 18.9792 9.625 16.0625 9.10417Z" fill="black"/>
</svg>
